<?xml version="1.0" encoding="UTF-8"?>
<svg enable-background="new 0 0 255.1 255.1" version="1.1" viewBox="0 0 255.1 255.1" xml:space="preserve" xmlns="http://www.w3.org/2000/svg">
<style type="text/css">
	.st0{fill:#AFDFF9;}
</style>
<path class="st0" d="M6.7,127.6v104.7c0,8.9,7.3,16.2,16.2,16.2h209.3c8.9,0,16.2-7.2,16.2-16.2V22.8c0-8.9-7.3-16.1-16.2-16.1H22.9  C14,6.7,6.7,13.9,6.7,22.8V127.6"/>
<path d="m90.7 208.1 6.5-10.4h62l6.5 10.4h-75m3.8-42.2c-5.2 0-9.5-4.2-9.5-9.4v-0.1c0-5.3 4.3-9.7 9.7-9.7s9.7 4.3 9.7 9.7c0 5.3-4.3 9.5-9.5 9.6-0.2-0.1-0.3-0.1-0.4-0.1m65.9 0c-5.3 0.1-9.7-4-9.8-9.3v-0.3c0-5.3 4.3-9.7 9.7-9.7s9.7 4.3 9.7 9.7c0 5.2-4.2 9.5-9.4 9.5-0.1 0.1-0.2 0.1-0.2 0.1m-35.7-33.3c-9.2 0-20.3-0.1-30.9-2-1.9-0.4-3.3-1.9-3.4-3.8-1-7.7-5.3-54.8-5.9-60.6-0.3-3.3 2.5-6.4 6.7-6.4h72.6c4.8 0 7 3 6.6 6.4-0.5 5.5-5.2 54.5-5.9 60.6-0.1 1.9-1.5 3.5-3.4 3.8-10.6 1.9-21.7 2-30.9 2h-5.5m2.8-91.9c-8.7 0-26.6 0.5-34.5 2.4-12 2.9-21.5 12.8-23.8 26.3-0.8 5.6-6.3 41.2-6.3 53.3 0 14.2 7.9 42.1 10.4 48.8 2 5.9 10.3 12.7 14.8 12.7l-29.6 46.1h18.4l6.4-10.3h89.7l6.4 10.3h17l-29.6-46.1c5.2 0 12.8-6.9 14.7-12.7 2.5-6.7 10.4-34.6 10.4-48.8 0-12.1-5.5-47.7-6.3-53.3-2-12.7-11.4-23-23.9-26.2-7.1-1.9-25.6-2.4-34.2-2.5"/>
<path d="m146.8 31.9h-38.6c-1.6 0-2.9-1.6-2.9-3.5s1.3-3.5 2.9-3.5h38.6c1.6 0 2.9 1.6 2.9 3.5s-1.2 3.5-2.9 3.5"/>
</svg>
