<?xml version="1.0" encoding="UTF-8"?>
<svg enable-background="new 0 0 255.1 255.1" version="1.1" viewBox="0 0 255.1 255.1" xml:space="preserve" xmlns="http://www.w3.org/2000/svg">
<style type="text/css">
	.st0{fill:#AFDFF9;}
</style>
<path class="st0" d="M6.7,127.6v104.7c0,8.9,7.3,16.2,16.2,16.2h209.3c8.9,0,16.2-7.2,16.2-16.2V22.8c0-8.9-7.3-16.1-16.2-16.1H22.9  C14,6.7,6.7,13.9,6.7,22.8V127.6"/>
<path d="m126.6 28.6c-54.6 0-98.8 44.3-98.8 98.8 0 54.6 44.3 98.8 98.8 98.8 54.6 0 98.8-44.3 98.8-98.8s-44.2-98.7-98.8-98.8m0 203.7c-57.9 0-104.8-46.9-104.8-104.8s47-104.8 104.8-104.8c57.9 0 104.8 46.9 104.8 104.8 0 57.8-46.9 104.7-104.8 104.8"/>
<polygon points="108 201.4 108 105.9 64.8 105.9 64.8 71.1 188.5 71.1 188.5 105.9 145.1 105.9 145.1 201.4"/>
</svg>
